<?xml version="1.0" encoding="UTF-8"?>
<!DOCTYPE svg PUBLIC "-//W3C//DTD SVG 1.1//EN" "http://www.w3.org/Graphics/SVG/1.1/DTD/svg11.dtd">
<!-- Creator: CorelDRAW -->
<svg xmlns="http://www.w3.org/2000/svg" xml:space="preserve" width="680px" height="1012px" version="1.1" style="shape-rendering:geometricPrecision; text-rendering:geometricPrecision; image-rendering:optimizeQuality; fill-rule:evenodd; clip-rule:evenodd"
viewBox="0 0 170.8 254.36"
 xmlns:xlink="http://www.w3.org/1999/xlink"
 xmlns:xodm="http://www.corel.com/coreldraw/odm/2003">
 <defs>
  <style type="text/css">
   <![CDATA[
    .fil0 {fill:black}
   ]]>
  </style>
 </defs>
 <g id="Camada_x0020_1">
  <metadata id="CorelCorpID_0Corel-Layer"/>
  <path class="fil0" d="M61.44 3.69l0 159.74c-16.33,0 -44.23,-2.75 -53.78,5.21 -3.95,3.3 -7.66,8.75 -7.66,15.68l0 49.15c0,11.85 10.39,20.89 22.12,20.89l47.92 0 0 -114.28 57.75 0c12.13,0 22.63,-1.82 29.72,-7.15 5.99,-4.51 13.29,-13.54 13.29,-23.57l0 -79.87c0,-15.36 -15.82,-29.49 -31.95,-29.49l-73.72 0c-2.84,0 -3.69,0.85 -3.69,3.69z"/>
 </g>
</svg>
